<svg version="1.1" id="Layer_1" xmlns="http://www.w3.org/2000/svg" xmlns:xlink="http://www.w3.org/1999/xlink" x="0px" y="0px"
	 width="100%" viewBox="0 0 2891 2480" enable-background="new 0 0 2891 2480" xml:space="preserve">
<path fill="#E6F9FF" opacity="1.000000" stroke="none" 
	d="
M1.999997,2138.000000 
	C2.000000,1671.943970 2.000000,1205.887817 2.709727,738.835205 
	C5.048318,736.315186 7.224081,735.084167 8.219762,733.222168 
	C16.362442,717.994385 24.318607,702.666382 32.266396,687.335083 
	C43.110344,666.417114 53.849632,645.444885 64.719360,624.540344 
	C80.686523,593.832642 96.730118,563.164551 112.739662,532.478821 
	C128.749374,501.792694 144.772232,471.113434 160.762497,440.417206 
	C186.119125,391.740570 211.443985,343.047363 236.800598,294.370697 
	C252.774002,263.706818 268.797516,233.069061 284.768158,202.403763 
	C301.986450,169.342819 319.158325,136.257675 336.371033,103.193825 
	C351.278168,74.558640 366.255524,45.959923 381.097534,17.291079 
	C383.664825,12.332007 385.712372,7.103857 388.000000,1.999999 
	C1050.722778,2.000000 1713.445435,2.000000 2377.486328,2.540686 
	C2382.468994,5.355554 2386.017334,7.848611 2389.818848,9.865180 
	C2404.503662,17.654835 2419.260010,25.309849 2434.006104,32.983147 
	C2467.895264,50.617325 2501.802979,68.214851 2535.685547,85.861259 
	C2565.762939,101.525635 2595.802979,117.261482 2625.884033,132.918640 
	C2660.065674,150.710022 2694.292725,168.413345 2728.465332,186.222031 
	C2757.030518,201.108475 2785.499023,216.180862 2814.095703,231.006195 
	C2840.671631,244.783936 2867.360840,258.344025 2894.000000,272.000000 
	C2894.000000,540.722717 2894.000000,809.445496 2893.473633,1079.525024 
	C2890.627441,1085.269897 2888.285889,1089.646973 2885.990723,1094.047974 
	C2869.676025,1125.330200 2853.341064,1156.601685 2837.070068,1187.906494 
	C2818.186768,1224.236572 2799.403320,1260.619019 2780.498291,1296.937866 
	C2766.208496,1324.391113 2751.769043,1351.766357 2737.444824,1379.201660 
	C2720.824219,1411.035034 2704.264893,1442.900146 2687.665039,1474.744385 
	C2671.510498,1505.734497 2655.295898,1536.693604 2639.184082,1567.706177 
	C2619.863770,1604.894775 2600.665771,1642.146973 2581.336914,1679.330933 
	C2566.016846,1708.802856 2550.540527,1738.193237 2535.204346,1767.656738 
	C2516.760986,1803.089478 2498.367920,1838.548584 2480.007324,1874.024170 
	C2474.206543,1885.232422 2468.703857,1896.595947 2462.848389,1907.775146 
	C2444.348389,1943.096802 2425.668945,1978.324707 2407.209717,2013.667725 
	C2395.033203,2036.981689 2383.114990,2060.430908 2371.083252,2083.820557 
	C2368.358398,2089.117676 2365.675537,2094.436768 2362.916992,2099.716064 
	C2341.661621,2140.396240 2320.428955,2181.088623 2299.112305,2221.736572 
	C2287.368408,2244.130127 2275.344727,2266.377441 2263.681396,2288.812500 
	C2246.964844,2320.968506 2230.492432,2353.251221 2213.854004,2385.447998 
	C2207.441895,2397.855713 2200.774170,2410.131592 2194.377197,2422.546875 
	C2184.183594,2442.329590 2174.119141,2462.178955 2164.000000,2482.000000 
	C1663.943970,2482.000000 1163.887817,2482.000000 662.597046,2481.391357 
	C660.063049,2479.776611 658.880615,2478.547363 657.447388,2477.797119 
	C626.786072,2461.745850 596.101379,2445.739746 565.411438,2429.743408 
	C532.975220,2412.836914 500.525604,2395.956055 468.088013,2379.052246 
	C436.805573,2362.750732 405.528229,2346.439209 374.253326,2330.123535 
	C344.159760,2314.423584 314.107971,2298.643555 283.971069,2283.027344 
	C258.550781,2269.855225 233.037720,2256.862061 207.558685,2243.803955 
	C202.518478,2241.220703 197.412476,2238.764648 192.394302,2236.139893 
	C159.126175,2218.740234 125.864197,2201.328369 92.619995,2183.883057 
	C73.808151,2174.011230 55.122456,2163.894775 36.208946,2154.222900 
	C24.977644,2148.479492 13.414094,2143.385986 1.999997,2138.000000 
M1784.719727,734.284119 
	C1795.263916,740.305603 1805.051636,747.694397 1816.700684,753.288757 
	C1876.469238,635.640808 1935.706787,519.037842 1995.124634,402.080322 
	C1974.013428,387.959015 1954.245483,374.390533 1934.106689,361.397186 
	C1922.364746,353.821320 1910.288574,346.670532 1897.913940,340.184570 
	C1851.432739,315.821930 1802.343140,297.804474 1752.743286,281.011780 
	C1686.976807,258.745789 1620.155396,240.610504 1551.403564,230.478317 
	C1486.336548,220.889191 1420.906128,216.648605 1355.090698,219.940277 
	C1315.034790,221.943634 1275.524780,227.671616 1236.550171,236.923965 
	C1162.494263,254.504349 1093.997803,285.057220 1030.665283,327.056244 
	C975.105835,363.900604 924.695862,406.690613 882.324646,458.518158 
	C843.763977,505.684723 814.154297,557.828857 794.011169,615.364136 
	C780.633789,653.574585 771.699890,692.790588 767.041443,732.965393 
	C760.559021,788.869507 760.305847,844.545959 771.686035,900.065674 
	C783.487610,957.641174 806.096436,1010.602966 837.577881,1059.908813 
	C869.366882,1109.696289 908.346802,1153.273315 952.995544,1191.895508 
	C996.034485,1229.125244 1042.375366,1261.823975 1092.840454,1287.850830 
	C1152.348145,1318.541260 1213.025635,1346.978271 1273.388550,1375.991455 
	C1322.335205,1399.517700 1372.339111,1420.947876 1419.144653,1448.701416 
	C1453.554443,1469.104980 1487.438965,1490.388184 1517.276978,1517.368408 
	C1541.992554,1539.716675 1558.577759,1566.723877 1564.731812,1599.841064 
	C1568.936646,1622.467896 1567.801025,1645.000610 1563.778320,1667.390991 
	C1556.988403,1705.183960 1539.224487,1736.681641 1509.057983,1761.026978 
	C1484.167847,1781.113892 1455.520142,1793.153198 1425.123413,1801.708862 
	C1395.791992,1809.964844 1365.738159,1813.853638 1335.431396,1815.626343 
	C1307.828979,1817.241089 1280.143433,1818.486206 1252.570190,1815.357178 
	C1209.265991,1810.442749 1167.569458,1798.888550 1127.126709,1782.948608 
	C1061.867676,1757.227783 999.980408,1724.593994 939.074158,1690.022949 
	C898.022949,1666.721802 861.564697,1637.009521 824.685303,1607.890625 
	C821.357544,1605.263062 818.033020,1602.631470 813.850769,1599.324707 
	C740.143799,1723.252930 666.970032,1846.284546 593.680664,1969.510620 
	C595.235352,1971.254639 596.183472,1972.606689 597.401245,1973.641357 
	C619.503540,1992.421143 641.973206,2010.666992 666.372009,2026.515381 
	C719.027161,2060.718018 774.473145,2089.858154 830.786377,2117.352783 
	C858.899170,2131.078613 887.253235,2144.688232 916.525330,2155.593018 
	C1015.500549,2192.464355 1118.255981,2212.774902 1223.317017,2221.640137 
	C1270.493530,2225.621094 1317.763306,2226.505615 1365.146973,2224.657471 
	C1417.518188,2222.614990 1469.459717,2217.402344 1521.028809,2208.203857 
	C1615.035034,2191.436035 1703.985474,2160.700195 1786.637939,2112.402588 
	C1829.447632,2087.386719 1869.118652,2058.430420 1903.185547,2022.124634 
	C1950.143921,1972.080322 1984.356079,1914.212158 2008.982910,1850.452393 
	C2026.714844,1804.543579 2037.930298,1757.004272 2044.296753,1708.236328 
	C2048.141357,1678.785034 2049.773193,1649.233154 2050.799072,1619.565308 
	C2052.307373,1575.934082 2048.147461,1533.065796 2036.690552,1490.936279 
	C2017.384277,1419.943359 1980.665039,1358.694214 1931.227295,1304.880981 
	C1889.395630,1259.347168 1843.086182,1218.765625 1792.882568,1182.584351 
	C1744.603027,1147.789795 1693.657715,1117.465210 1639.791504,1092.355957 
	C1590.573120,1069.413086 1540.689209,1047.882446 1490.909668,1026.162598 
	C1427.311890,998.413391 1365.034546,968.082703 1305.391479,932.546448 
	C1280.163086,917.514954 1255.955566,901.046875 1234.672241,880.542175 
	C1204.675781,851.643250 1190.803101,817.218445 1195.419189,775.200012 
	C1201.361084,721.112427 1228.232544,681.164062 1274.600586,653.769592 
	C1303.494507,636.698792 1335.198975,628.271667 1368.207031,623.891052 
	C1426.480835,616.157227 1483.871460,621.598389 1540.765381,635.028992 
	C1584.676025,645.394714 1626.723633,661.364685 1668.734131,677.462341 
	C1708.645264,692.755493 1747.587769,710.010803 1784.719727,734.284119 
z"/>
<path fill="#FFFFFF" opacity="1.000000" stroke="none" 
	d="
M2164.937256,2482.000000 
	C2174.119141,2462.178955 2184.183594,2442.329590 2194.377197,2422.546875 
	C2200.774170,2410.131592 2207.441895,2397.855713 2213.854004,2385.447998 
	C2230.492432,2353.251221 2246.964844,2320.968506 2263.681396,2288.812500 
	C2275.344727,2266.377441 2287.368408,2244.130127 2299.112305,2221.736572 
	C2320.428955,2181.088623 2341.661621,2140.396240 2362.916992,2099.716064 
	C2365.675537,2094.436768 2368.358398,2089.117676 2371.083252,2083.820557 
	C2383.114990,2060.430908 2395.033203,2036.981689 2407.209717,2013.667725 
	C2425.668945,1978.324707 2444.348389,1943.096802 2462.848389,1907.775146 
	C2468.703857,1896.595947 2474.206543,1885.232422 2480.007324,1874.024170 
	C2498.367920,1838.548584 2516.760986,1803.089478 2535.204346,1767.656738 
	C2550.540527,1738.193237 2566.016846,1708.802856 2581.336914,1679.330933 
	C2600.665771,1642.146973 2619.863770,1604.894775 2639.184082,1567.706177 
	C2655.295898,1536.693604 2671.510498,1505.734497 2687.665039,1474.744385 
	C2704.264893,1442.900146 2720.824219,1411.035034 2737.444824,1379.201660 
	C2751.769043,1351.766357 2766.208496,1324.391113 2780.498291,1296.937866 
	C2799.403320,1260.619019 2818.186768,1224.236572 2837.070068,1187.906494 
	C2853.341064,1156.601685 2869.676025,1125.330200 2885.990723,1094.047974 
	C2888.285889,1089.646973 2890.627441,1085.269897 2893.473633,1080.440918 
	C2894.000000,1547.141479 2894.000000,2014.283081 2894.000000,2482.000000 
	C2651.291748,2482.000000 2408.583252,2482.000000 2164.937256,2482.000000 
z"/>
<path fill="#FFFFFF" opacity="1.000000" stroke="none" 
	d="
M387.062683,1.999999 
	C385.712372,7.103857 383.664825,12.332007 381.097534,17.291079 
	C366.255524,45.959923 351.278168,74.558640 336.371033,103.193825 
	C319.158325,136.257675 301.986450,169.342819 284.768158,202.403763 
	C268.797516,233.069061 252.774002,263.706818 236.800598,294.370697 
	C211.443985,343.047363 186.119125,391.740570 160.762497,440.417206 
	C144.772232,471.113434 128.749374,501.792694 112.739662,532.478821 
	C96.730118,563.164551 80.686523,593.832642 64.719360,624.540344 
	C53.849632,645.444885 43.110344,666.417114 32.266396,687.335083 
	C24.318607,702.666382 16.362442,717.994385 8.219762,733.222168 
	C7.224081,735.084167 5.048318,736.315186 2.709727,737.919312 
	C2.000000,492.858124 2.000000,247.716217 2.000000,2.000000 
	C130.041214,2.000000 258.083282,2.000000 387.062683,1.999999 
z"/>
<path fill="#FFFFFF" opacity="1.000000" stroke="none" 
	d="
M1.999997,2138.937256 
	C13.414094,2143.385986 24.977644,2148.479492 36.208946,2154.222900 
	C55.122456,2163.894775 73.808151,2174.011230 92.619995,2183.883057 
	C125.864197,2201.328369 159.126175,2218.740234 192.394302,2236.139893 
	C197.412476,2238.764648 202.518478,2241.220703 207.558685,2243.803955 
	C233.037720,2256.862061 258.550781,2269.855225 283.971069,2283.027344 
	C314.107971,2298.643555 344.159760,2314.423584 374.253326,2330.123535 
	C405.528229,2346.439209 436.805573,2362.750732 468.088013,2379.052246 
	C500.525604,2395.956055 532.975220,2412.836914 565.411438,2429.743408 
	C596.101379,2445.739746 626.786072,2461.745850 657.447388,2477.797119 
	C658.880615,2478.547363 660.063049,2479.776611 661.681152,2481.391357 
	C442.191803,2482.000000 222.383575,2482.000000 2.000000,2482.000000 
	C2.000000,2367.958740 2.000000,2253.916748 1.999997,2138.937256 
z"/>
<path fill="#FFFFFF" opacity="1.000000" stroke="none" 
	d="
M2894.000000,271.062683 
	C2867.360840,258.344025 2840.671631,244.783936 2814.095703,231.006195 
	C2785.499023,216.180862 2757.030518,201.108475 2728.465332,186.222031 
	C2694.292725,168.413345 2660.065674,150.710022 2625.884033,132.918640 
	C2595.802979,117.261482 2565.762939,101.525635 2535.685547,85.861259 
	C2501.802979,68.214851 2467.895264,50.617325 2434.006104,32.983147 
	C2419.260010,25.309849 2404.503662,17.654835 2389.818848,9.865180 
	C2386.017334,7.848611 2382.468994,5.355554 2378.402100,2.540686 
	C2549.808350,2.000000 2721.616699,2.000000 2894.000000,2.000000 
	C2894.000000,91.374298 2894.000000,180.749832 2894.000000,271.062683 
z"/>
<path fill="#01BFFE" opacity="1.000000" stroke="none" 
	d="
M1784.084961,733.928467 
	C1747.587769,710.010803 1708.645264,692.755493 1668.734131,677.462341 
	C1626.723633,661.364685 1584.676025,645.394714 1540.765381,635.028992 
	C1483.871460,621.598389 1426.480835,616.157227 1368.207031,623.891052 
	C1335.198975,628.271667 1303.494507,636.698792 1274.600586,653.769592 
	C1228.232544,681.164062 1201.361084,721.112427 1195.419189,775.200012 
	C1190.803101,817.218445 1204.675781,851.643250 1234.672241,880.542175 
	C1255.955566,901.046875 1280.163086,917.514954 1305.391479,932.546448 
	C1365.034546,968.082703 1427.311890,998.413391 1490.909668,1026.162598 
	C1540.689209,1047.882446 1590.573120,1069.413086 1639.791504,1092.355957 
	C1693.657715,1117.465210 1744.603027,1147.789795 1792.882568,1182.584351 
	C1843.086182,1218.765625 1889.395630,1259.347168 1931.227295,1304.880981 
	C1980.665039,1358.694214 2017.384277,1419.943359 2036.690552,1490.936279 
	C2048.147461,1533.065796 2052.307373,1575.934082 2050.799072,1619.565308 
	C2049.773193,1649.233154 2048.141357,1678.785034 2044.296753,1708.236328 
	C2037.930298,1757.004272 2026.714844,1804.543579 2008.982910,1850.452393 
	C1984.356079,1914.212158 1950.143921,1972.080322 1903.185547,2022.124634 
	C1869.118652,2058.430420 1829.447632,2087.386719 1786.637939,2112.402588 
	C1703.985474,2160.700195 1615.035034,2191.436035 1521.028809,2208.203857 
	C1469.459717,2217.402344 1417.518188,2222.614990 1365.146973,2224.657471 
	C1317.763306,2226.505615 1270.493530,2225.621094 1223.317017,2221.640137 
	C1118.255981,2212.774902 1015.500549,2192.464355 916.525330,2155.593018 
	C887.253235,2144.688232 858.899170,2131.078613 830.786377,2117.352783 
	C774.473145,2089.858154 719.027161,2060.718018 666.372009,2026.515381 
	C641.973206,2010.666992 619.503540,1992.421143 597.401245,1973.641357 
	C596.183472,1972.606689 595.235352,1971.254639 593.680664,1969.510620 
	C666.970032,1846.284546 740.143799,1723.252930 813.850769,1599.324707 
	C818.033020,1602.631470 821.357544,1605.263062 824.685303,1607.890625 
	C861.564697,1637.009521 898.022949,1666.721802 939.074158,1690.022949 
	C999.980408,1724.593994 1061.867676,1757.227783 1127.126709,1782.948608 
	C1167.569458,1798.888550 1209.265991,1810.442749 1252.570190,1815.357178 
	C1280.143433,1818.486206 1307.828979,1817.241089 1335.431396,1815.626343 
	C1365.738159,1813.853638 1395.791992,1809.964844 1425.123413,1801.708862 
	C1455.520142,1793.153198 1484.167847,1781.113892 1509.057983,1761.026978 
	C1539.224487,1736.681641 1556.988403,1705.183960 1563.778320,1667.390991 
	C1567.801025,1645.000610 1568.936646,1622.467896 1564.731812,1599.841064 
	C1558.577759,1566.723877 1541.992554,1539.716675 1517.276978,1517.368408 
	C1487.438965,1490.388184 1453.554443,1469.104980 1419.144653,1448.701416 
	C1372.339111,1420.947876 1322.335205,1399.517700 1273.388550,1375.991455 
	C1213.025635,1346.978271 1152.348145,1318.541260 1092.840454,1287.850830 
	C1042.375366,1261.823975 996.034485,1229.125244 952.995544,1191.895508 
	C908.346802,1153.273315 869.366882,1109.696289 837.577881,1059.908813 
	C806.096436,1010.602966 783.487610,957.641174 771.686035,900.065674 
	C760.305847,844.545959 760.559021,788.869507 767.041443,732.965393 
	C771.699890,692.790588 780.633789,653.574585 794.011169,615.364136 
	C814.154297,557.828857 843.763977,505.684723 882.324646,458.518158 
	C924.695862,406.690613 975.105835,363.900604 1030.665283,327.056244 
	C1093.997803,285.057220 1162.494263,254.504349 1236.550171,236.923965 
	C1275.524780,227.671616 1315.034790,221.943634 1355.090698,219.940277 
	C1420.906128,216.648605 1486.336548,220.889191 1551.403564,230.478317 
	C1620.155396,240.610504 1686.976807,258.745789 1752.743286,281.011780 
	C1802.343140,297.804474 1851.432739,315.821930 1897.913940,340.184570 
	C1910.288574,346.670532 1922.364746,353.821320 1934.106689,361.397186 
	C1954.245483,374.390533 1974.013428,387.959015 1995.124634,402.080322 
	C1935.706787,519.037842 1876.469238,635.640808 1816.700684,753.288757 
	C1805.051636,747.694397 1795.263916,740.305603 1784.084961,733.928467 
z"/>
</svg>